<svg width="32" height="32" viewBox="0 0 32 32" fill="none" xmlns="http://www.w3.org/2000/svg">
<path d="M25.4747 10.6666L26.528 8.33328L28.8614 7.27994C29.3814 7.03994 29.3814 6.30661 28.8614 6.06661L26.528 5.01328L25.4747 2.66661C25.2347 2.14661 24.5014 2.14661 24.2614 2.66661L23.208 4.99994L20.8614 6.05328C20.3414 6.29328 20.3414 7.02661 20.8614 7.26661L23.1947 8.31994L24.248 10.6666C24.488 11.1866 25.2347 11.1866 25.4747 10.6666ZM14.8614 12.6666L12.7414 7.99994C12.2747 6.95994 10.7814 6.95994 10.3147 7.99994L8.19471 12.6666L3.52805 14.7866C2.48805 15.2666 2.48805 16.7466 3.52805 17.2133L8.19471 19.3333L10.3147 23.9999C10.7947 25.0399 12.2747 25.0399 12.7414 23.9999L14.8614 19.3333L19.528 17.2133C20.568 16.7333 20.568 15.2533 19.528 14.7866L14.8614 12.6666ZM24.248 21.3333L23.1947 23.6666L20.8614 24.7199C20.3414 24.9599 20.3414 25.6933 20.8614 25.9333L23.1947 26.9866L24.248 29.3333C24.488 29.8533 25.2214 29.8533 25.4614 29.3333L26.5147 26.9999L28.8614 25.9466C29.3814 25.7066 29.3814 24.9733 28.8614 24.7333L26.528 23.6799L25.4747 21.3333C25.2347 20.8133 24.488 20.8133 24.248 21.3333Z" fill="#FDFDFD"/>
</svg>
