<svg width="32" height="32" viewBox="0 0 32 32" fill="none" xmlns="http://www.w3.org/2000/svg">
<path d="M14.3333 5.66667C14.7067 5.66667 15 5.96 15 6.33333V9H23V17H25.6667C26.04 17 26.3333 17.2933 26.3333 17.6667C26.3333 18.04 26.04 18.3333 25.6667 18.3333H23V26.3333H20.1733C19.2667 24 16.9867 22.3333 14.3333 22.3333C11.68 22.3333 9.4 24 8.49333 26.3333H5.66667V23.5067C8 22.6 9.66667 20.32 9.66667 17.6667C9.66667 15.0133 8.01333 12.7333 5.68 11.8267L5.66667 9H13.6667V6.33333C13.6667 5.96 13.96 5.66667 14.3333 5.66667ZM14.3333 3C12.4933 3 11 4.49333 11 6.33333H5.66667C4.2 6.33333 3.01333 7.53333 3.01333 9V14.0667H3.4C5.38667 14.0667 7 15.68 7 17.6667C7 19.6533 5.38667 21.2667 3.4 21.2667H3V26.3333C3 27.8 4.2 29 5.66667 29H10.7333V28.6C10.7333 26.6133 12.3467 25 14.3333 25C16.32 25 17.9333 26.6133 17.9333 28.6V29H23C24.4667 29 25.6667 27.8 25.6667 26.3333V21C27.5067 21 29 19.5067 29 17.6667C29 15.8267 27.5067 14.3333 25.6667 14.3333V9C25.6667 7.53333 24.4667 6.33333 23 6.33333H17.6667C17.6667 4.49333 16.1733 3 14.3333 3Z" fill="#FDFDFD"/>
</svg>
