<svg width="32" height="32" viewBox="0 0 32 32" fill="none" xmlns="http://www.w3.org/2000/svg">
<path d="M28.6663 12L25.6663 6.66663H21.253L18.9997 2.66663H12.9997L10.7463 6.66663H6.33301L3.33301 12L5.58634 16L3.33301 20L6.33301 25.3333H10.7463L12.9997 29.3333H18.9997L21.253 25.3333H25.6663L28.6663 20L26.413 16L28.6663 12ZM25.613 12L24.1197 14.6666H21.2663L19.773 12L21.2663 9.33329H24.1197L25.613 12ZM14.5863 18.6666L13.093 16L14.5863 13.3333H17.413L18.9063 16L17.413 18.6666H14.5863ZM17.4397 5.33329L18.933 7.97329L17.413 10.6666H14.5863L13.0663 7.97329L14.5597 5.33329H17.4397ZM7.89301 9.33329H10.7463L12.2397 12L10.7463 14.6666H7.89301L6.38634 12L7.89301 9.33329ZM6.38634 20L7.87967 17.3333H10.733L12.2263 20L10.733 22.6666H7.89301L6.38634 20ZM14.5597 26.6666L13.0663 24.0266L14.5863 21.3333H17.413L18.9197 24.0266L17.4397 26.6666H14.5597ZM24.1063 22.6666H21.253L19.7597 20L21.253 17.3333H24.1063L25.5997 20L24.1063 22.6666Z" fill="#F3F6F9"/>
</svg>
