<svg width="32" height="32" viewBox="0 0 32 32" fill="none" xmlns="http://www.w3.org/2000/svg">
<path d="M19.56 7.99996V14C19.56 14.7333 18.96 15.3333 18.2267 15.3333H13.7867C13.0533 15.3333 12.4533 14.7333 12.4533 14V7.99996C12.4533 7.26663 13.0533 6.66663 13.7867 6.66663H18.2267C18.96 6.66663 19.56 7.26663 19.56 7.99996ZM22.2267 15.3333H26.6667C27.4 15.3333 28 14.7333 28 14V7.99996C28 7.26663 27.4 6.66663 26.6667 6.66663H22.2267C21.4933 6.66663 20.8933 7.26663 20.8933 7.99996V14C20.8933 14.7333 21.48 15.3333 22.2267 15.3333ZM19.56 24V18C19.56 17.2666 18.96 16.6666 18.2267 16.6666H13.7867C13.0533 16.6666 12.4533 17.2666 12.4533 18V24C12.4533 24.7333 13.0533 25.3333 13.7867 25.3333H18.2267C18.96 25.3333 19.56 24.7333 19.56 24ZM20.8933 18V24C20.8933 24.7333 21.4933 25.3333 22.2267 25.3333H26.6667C27.4 25.3333 28 24.7333 28 24V18C28 17.2666 27.4 16.6666 26.6667 16.6666H22.2267C21.48 16.6666 20.8933 17.2666 20.8933 18ZM9.77333 16.6666H5.33333C4.6 16.6666 4 17.2666 4 18V24C4 24.7333 4.6 25.3333 5.33333 25.3333H9.77333C10.5067 25.3333 11.1067 24.7333 11.1067 24V18C11.1067 17.2666 10.52 16.6666 9.77333 16.6666ZM11.1067 14V7.99996C11.1067 7.26663 10.5067 6.66663 9.77333 6.66663H5.33333C4.6 6.66663 4 7.26663 4 7.99996V14C4 14.7333 4.6 15.3333 5.33333 15.3333H9.77333C10.52 15.3333 11.1067 14.7333 11.1067 14Z" fill="#FDFDFD"/>
</svg>
